<svg id="Layer_1" data-name="Layer 1" xmlns="http://www.w3.org/2000/svg" viewBox="0 0 1227.04 279.36"><defs><style>.cls-1{fill:#0973ba;}</style></defs><path class="cls-1" d="M215.36,833.83q-28.92,0-49.38-20.46T145.52,764q0-28.85,20.46-49.31t49.38-20.53H285.2v34.92H215.36a34.92,34.92,0,0,0,0,69.84H285.2v34.92Z" transform="translate(-145.52 -624.31)"/><path class="cls-1" d="M325.17,813.37Q304.71,792.91,304.71,764t20.46-49.31q20.46-20.52,49.38-20.53t49.31,20.53q20.52,20.46,20.53,49.31t-20.53,49.38q-20.46,20.46-49.31,20.46T325.17,813.37Zm74-24.69a34.83,34.83,0,1,0-24.62,10.23A33.56,33.56,0,0,0,399.17,788.68Z" transform="translate(-145.52 -624.31)"/><path class="cls-1" d="M688,714.68q-20.46-20.52-49.38-20.53t-49.31,20.53c-1.08,1.08-2.11,2.19-3.11,3.3-1-1.11-2-2.22-3.11-3.3q-20.46-20.52-49.31-20.53t-49.38,20.53Q463.89,735.14,463.89,764v69.84h34.92V764a34.92,34.92,0,0,1,69.84,0h35a34.92,34.92,0,0,1,69.84,0v69.84h34.92V764Q708.41,735.15,688,714.68Z" transform="translate(-145.52 -624.31)"/><path class="cls-1" d="M735.81,903.67V764q0-28.85,20.46-49.31t49.38-20.53q28.86,0,49.31,20.53T875.49,764q0,28.92-20.53,49.38t-49.31,20.46V798.91A34.87,34.87,0,1,0,770.73,764V903.67Z" transform="translate(-145.52 -624.31)"/><path class="cls-1" d="M915.46,813.37Q895,792.91,895,764V624.31h34.92V764a34.93,34.93,0,0,0,34.92,34.92v34.92Q935.92,833.83,915.46,813.37Z" transform="translate(-145.52 -624.31)"/><path class="cls-1" d="M1143.53,903.67V764q0-28.85,20.47-49.31t49.38-20.53v34.92A35,35,0,0,0,1178.45,764V903.67Zm13.92-223.43v-42h41.94v42Z" transform="translate(-145.52 -624.31)"/><path class="cls-1" d="M1253.34,813.37q-20.46-20.46-20.46-49.38t20.46-49.31q20.46-20.52,49.38-20.53T1352,714.68q20.54,20.46,20.53,49.31T1352,813.37q-20.46,20.46-49.31,20.46T1253.34,813.37Zm74-24.69a34.83,34.83,0,1,0-24.62,10.23A33.52,33.52,0,0,0,1327.34,788.68Z" transform="translate(-145.52 -624.31)"/><path class="cls-1" d="M1103.5,714.68q-20.46-20.52-49.31-20.53t-49.38,20.53Q984.35,735.14,984.35,764t20.46,49.38q20.46,20.46,49.38,20.46V798.91a34.92,34.92,0,1,1,24.62-59.54,35,35,0,0,1,7.43,10.63h-52.43v14H1124Q1124,735.15,1103.5,714.68Z" transform="translate(-145.52 -624.31)"/></svg>