<svg id="Capa_4" data-name="Capa 4" xmlns="http://www.w3.org/2000/svg" viewBox="0 0 1387.23 360.48"><defs><style>.cls-1{fill:#1d71b8;}</style></defs><path class="cls-1" d="M73.06,645.63h29.12a8.2,8.2,0,0,1,7.33,4.53l37.84,75.69a8.19,8.19,0,0,0,14.65,0l37.85-75.69a8.2,8.2,0,0,1,7.32-4.53H236.3a8.2,8.2,0,0,1,7.32,11.86L162,820.72a8.19,8.19,0,0,1-14.65,0L65.74,657.49A8.19,8.19,0,0,1,73.06,645.63Z" transform="translate(-64.86 -569.76)"/><path class="cls-1" d="M312.05,815a97.17,97.17,0,0,1-35.45-85.37q3.39-32.24,27.24-56.09,27.8-27.88,67.07-27.89t67,27.89q27.89,27.79,27.88,67v86.61a8.26,8.26,0,0,1-8.26,8.26H426.61a8.26,8.26,0,0,1-8.26-8.26V740.5a47.44,47.44,0,1,0-94.86,1.24,47.11,47.11,0,0,0,13.14,31.54,45.68,45.68,0,0,0,27.56,14.23,7.61,7.61,0,0,1,6.72,7.5v32.51a7.57,7.57,0,0,1-8.18,7.54A89.73,89.73,0,0,1,312.05,815Z" transform="translate(-64.86 -569.76)"/><path class="cls-1" d="M500.1,835.37a7.82,7.82,0,0,1-7.82-7.82v-87q0-39.18,27.79-67t67.08-27.89q39.18,0,67,27.89t27.89,67v87a7.82,7.82,0,0,1-7.82,7.82H642.4a7.82,7.82,0,0,1-7.82-7.82v-87a47.44,47.44,0,0,0-94.87,0v87a7.82,7.82,0,0,1-7.81,7.82Z" transform="translate(-64.86 -569.76)"/><path class="cls-1" d="M738.48,809.69c-19.39-18.34-30-44.15-30-70.84V653.39a7.77,7.77,0,0,1,7.76-7.76h31.92a7.77,7.77,0,0,1,7.76,7.76V738.8c0,15.1,6.44,29.71,18.24,39.14a44.76,44.76,0,0,0,22.36,9.56,7.78,7.78,0,0,1,6.83,7.69V827.3a7.78,7.78,0,0,1-8.38,7.75Q762.57,832.47,738.48,809.69ZM850.82,922.48V653.39a7.76,7.76,0,0,1,7.76-7.76h31.91a7.76,7.76,0,0,1,7.76,7.76V922.48a7.75,7.75,0,0,1-7.76,7.76H858.58A7.75,7.75,0,0,1,850.82,922.48Z" transform="translate(-64.86 -569.76)"/><path class="cls-1" d="M952.66,807.7a95.15,95.15,0,0,1-27.91-67.2q0-39.18,27.79-67t67.08-27.89q39.18,0,67,27.89t27.89,67V828a7.36,7.36,0,0,1-7.37,7.36h-32.7a7.36,7.36,0,0,1-7.37-7.36V740.5a47.44,47.44,0,0,0-94.87.16,47.43,47.43,0,0,0,13.9,33.39,45.48,45.48,0,0,0,27,13.48,7.41,7.41,0,0,1,6.56,7.31v32.89a7.4,7.4,0,0,1-8,7.35Q977.56,832.52,952.66,807.7Z" transform="translate(-64.86 -569.76)"/><path class="cls-1" d="M1148.17,835.37a7.19,7.19,0,0,1-7.19-7.19V740.5q0-39.18,27.8-67t67.07-27.89q39.2,0,67,27.89,25.08,25,27.6,59.24a7.2,7.2,0,0,1-7.18,7.74H1290a7.2,7.2,0,0,1-7.13-6.35,47.46,47.46,0,0,0-94.48,6.35v87.68a7.19,7.19,0,0,1-7.19,7.19Z" transform="translate(-64.86 -569.76)"/><path class="cls-1" d="M1365.11,835.37a7.89,7.89,0,0,1-7.89-7.89v-87q0-39.18,27.79-67,24.75-24.82,58.58-27.55a7.9,7.9,0,0,1,8.5,7.88V685.7a8,8,0,0,1-7,7.84,47.77,47.77,0,0,0-40.46,47v87a7.89,7.89,0,0,1-7.89,7.89Zm11-237.12h0a28.48,28.48,0,0,1,28.49-28.49h0a28.49,28.49,0,0,1,28.49,28.49h0a28.49,28.49,0,0,1-28.49,28.48h0A28.48,28.48,0,0,1,1376.12,598.25Z" transform="translate(-64.86 -569.76)"/></svg>