<svg id="Layer_1" data-name="Layer 1" xmlns="http://www.w3.org/2000/svg" viewBox="0 0 1234.16 267.3"><defs><style>.cls-1{fill:#0973ba;}</style></defs><path class="cls-1" d="M461.86,723.4q-28-28.06-67.5-28.07T327,723.4c-2,2-3.87,4-5.66,6.12-1.78-2.08-3.66-4.13-5.66-6.12q-28-28.06-67.4-28.07t-67.5,28.07q-28,28-28,67.4v95.47h47.73V790.8a47.92,47.92,0,0,1,47.74-47.73A48.08,48.08,0,0,1,296,790.8h50.66a47.74,47.74,0,0,1,95.47,0v95.47h47.74V790.8Q489.83,751.37,461.86,723.4Z" transform="translate(-152.76 -618.98)"/><path class="cls-1" d="M516.49,886.27V790.8q0-39.43,28-67.4T612,695.33v47.74a47.9,47.9,0,0,0-47.73,47.73v95.47Zm19-210V619h57.34v57.33Z" transform="translate(-152.76 -618.98)"/><path class="cls-1" d="M638.63,790.8q0-39.43,28-67.4t67.5-28.07h95.47v47.74H734.1a47.92,47.92,0,0,0-47.74,47.73Zm0,95.47V838.54H734.1a47.9,47.9,0,0,0,47.73-47.74h47.74q0,39.54-28.06,67.5t-67.41,28Z" transform="translate(-152.76 -618.98)"/><path class="cls-1" d="M856.23,886.27V790.8q0-39.43,28-67.4t67.5-28.07v47.74A47.9,47.9,0,0,0,904,790.8v95.47Zm19-210V619h57.34v57.33Z" transform="translate(-152.76 -618.98)"/><path class="cls-1" d="M1006.34,858.3q-28-28-28-67.5t28-67.4q28-28.06,67.5-28.07t67.41,28.07q28.05,28,28.06,67.4t-28.06,67.5q-28,28-67.41,28T1006.34,858.3Zm101.16-33.75a47.6,47.6,0,1,0-33.66,14A45.84,45.84,0,0,0,1107.5,824.55Z" transform="translate(-152.76 -618.98)"/><path class="cls-1" d="M1196,886.27V790.8q0-39.43,28-67.4t67.5-28.07q39.45,0,67.41,28.07t28.06,67.4v95.47h-47.73V790.8a47.74,47.74,0,0,0-95.47,0v95.47Z" transform="translate(-152.76 -618.98)"/><path class="cls-1" d="M1141.38,696.09l17.69-31.87L1128,647l-18.24,32.88A89.83,89.83,0,0,1,1141.38,696.09Z" transform="translate(-152.76 -618.98)"/></svg>