<svg id="Layer_3" data-name="Layer 3" xmlns="http://www.w3.org/2000/svg" viewBox="0 0 1261.09 207.48"><defs><style>.cls-1{fill:#0973ba;}</style></defs><path class="cls-1" d="M168.44,825q-20.26-20.25-20.26-48.9V637.79h34.58V707h34.58v34.58H182.76v34.58a34.59,34.59,0,0,0,34.58,34.58v34.58Q188.71,845.27,168.44,825Z" transform="translate(-148.18 -637.79)"/><path class="cls-1" d="M256.92,825q-20.27-20.25-20.26-48.9V707h34.58v69.16a34.59,34.59,0,0,0,34.58,34.58v34.58Q277.19,845.27,256.92,825Zm83.48,20.26V707H375V845.27Z" transform="translate(-148.18 -637.79)"/><path class="cls-1" d="M532.61,845.27q-28.64,0-48.9-20.26t-20.26-48.9q0-28.56,20.26-48.83T532.61,707h69.16v34.58H532.61a34.58,34.58,0,0,0,0,69.16h69.16v34.58Z" transform="translate(-148.18 -637.79)"/><path class="cls-1" d="M641.35,825q-20.26-20.25-20.26-48.9t20.26-48.83Q661.62,707,690.25,707t48.83,20.33q20.32,20.26,20.33,48.83T739.08,825q-20.26,20.26-48.83,20.26T641.35,825Zm73.28-24.45a34.49,34.49,0,1,0-24.38,10.13A33.19,33.19,0,0,0,714.63,800.56Z" transform="translate(-148.18 -637.79)"/><path class="cls-1" d="M778.72,845.27V776.11q0-28.56,20.27-48.83T847.88,707q28.57,0,48.84,20.33T917,776.11v69.16H882.46V776.11a34.58,34.58,0,0,0-69.16,0v69.16Z" transform="translate(-148.18 -637.79)"/><path class="cls-1" d="M956.62,825q-20.25-20.25-20.26-48.9V637.79h34.58V707h34.58v34.58H970.94v34.58a34.59,34.59,0,0,0,34.58,34.58v34.58Q976.89,845.27,956.62,825Z" transform="translate(-148.18 -637.79)"/><path class="cls-1" d="M1024.84,845.27V776.11q0-28.56,20.26-48.83T1094,707q28.56,0,48.83,20.33t20.33,48.83h-34.58a34.58,34.58,0,0,0-69.16,0v69.16Z" transform="translate(-148.18 -637.79)"/><path class="cls-1" d="M1202.74,825q-20.27-20.25-20.27-48.9t20.27-48.83Q1223,707,1251.63,707t48.83,20.33q20.34,20.26,20.33,48.83T1300.46,825q-20.25,20.26-48.83,20.26T1202.74,825ZM1276,800.56a34.5,34.5,0,1,0-24.39,10.13A33.22,33.22,0,0,0,1276,800.56Z" transform="translate(-148.18 -637.79)"/><path class="cls-1" d="M1360.37,825q-20.26-20.25-20.26-48.9V637.79h34.58V776.11a34.59,34.59,0,0,0,34.58,34.58v34.58Q1380.64,845.27,1360.37,825Z" transform="translate(-148.18 -637.79)"/></svg>