<svg id="Capa_17" data-name="Capa 17" xmlns="http://www.w3.org/2000/svg" viewBox="0 0 1227.58 1227.58"><defs><style>.cls-1{fill:#36a9e1;}.cls-2{fill:#6ebddd;}.cls-3{fill:#1d71b8;}</style></defs><circle class="cls-1" cx="613.79" cy="613.79" r="613.79"/><circle class="cls-2" cx="613.79" cy="613.79" r="528.4"/><ellipse class="cls-3" cx="626.68" cy="613.79" rx="515.52" ry="528.4"/><path class="cls-2" d="M504,487.22H608.43a16.74,16.74,0,0,1,15,9.25L745.64,741a16.74,16.74,0,0,0,29.94,0L897.82,496.47a16.73,16.73,0,0,1,15-9.25H1017.2a16.74,16.74,0,0,1,15,24.22L775.58,1024.62a16.74,16.74,0,0,1-29.94,0L489.05,511.44A16.74,16.74,0,0,1,504,487.22Z" transform="translate(-133.93 -112.66)"/><path class="cls-1" d="M485.09,484.8H589.5a16.74,16.74,0,0,1,15,9.25L726.71,738.53a16.74,16.74,0,0,0,29.94,0L878.89,494.05a16.73,16.73,0,0,1,15-9.25H998.27a16.74,16.74,0,0,1,15,24.22L756.65,1022.2a16.74,16.74,0,0,1-29.94,0L470.13,509a16.74,16.74,0,0,1,15-24.22Z" transform="translate(-133.93 -112.66)"/></svg>