<svg id="Capa_17" data-name="Capa 17" xmlns="http://www.w3.org/2000/svg" viewBox="0 0 1463.49 1464.83"><defs><style>.cls-1{fill:#ffed33;}.cls-2{fill:#f59e01;}.cls-3{fill:#fac902;}.cls-4{fill:#f7a005;}.cls-5{fill:#ffe934;}</style></defs><circle class="cls-1" cx="747.72" cy="726.45" r="613.79"/><circle class="cls-2" cx="747.72" cy="726.45" r="528.4"/><ellipse class="cls-3" cx="760.61" cy="726.45" rx="515.52" ry="528.4"/><path class="cls-4" d="M504,487.22H608.43a16.74,16.74,0,0,1,15,9.25L745.64,741a16.74,16.74,0,0,0,29.94,0L897.82,496.47a16.73,16.73,0,0,1,15-9.25H1017.2a16.74,16.74,0,0,1,15,24.22L775.58,1024.62a16.74,16.74,0,0,1-29.94,0L489.05,511.44A16.74,16.74,0,0,1,504,487.22Z"/><path class="cls-5" d="M485.09,484.8H589.5a16.74,16.74,0,0,1,15,9.25L726.71,738.53a16.74,16.74,0,0,0,29.94,0L878.89,494.05a16.73,16.73,0,0,1,15-9.25H998.27a16.74,16.74,0,0,1,15,24.22L756.65,1022.2a16.74,16.74,0,0,1-29.94,0L470.13,509a16.74,16.74,0,0,1,15-24.22Z"/><path class="cls-4" d="M668.29,444.36c-.55-16.21-6.53-30.62-13.47-44.71a246.91,246.91,0,0,0-18.24-30.78c-.09-.13-.15-.27-.41-.73a155.54,155.54,0,0,0,41.32,16.1c.83,3.52,1.24,6.9,2.43,10,5.13,13.23,17.1,19.65,31.37,16.86,11.51-2.25,21.46-7.77,30.16-15.49,4.67-4.14,7.81-9.3,7.51-15.8a25.68,25.68,0,0,0-9.84-19.17c-.38-.31-.79-.59-1.12-.84q12.57-28.84,25.08-57.51l25.09,57.51a24.33,24.33,0,0,0-8,9.23c-5.17,10-3.94,18.87,4.4,26.43,9.22,8.36,19.92,14.11,32.39,16a26.88,26.88,0,0,0,31-23.37c.16-1.14.13-2.31.21-3.65a156,156,0,0,0,41.76-16.21c-.29.52-.43.81-.61,1.08-11,16.36-20.81,33.39-27.14,52.19a71.66,71.66,0,0,0-4.22,22.22,4.47,4.47,0,0,1-.12.7H668.29Z"/><path class="cls-4" d="M668.24,457v-6.58H857.79V457Z"/><path class="cls-4" d="M668.27,463.09H857.81v5.76H668.27Z"/><path class="cls-5" d="M658.26,441.65c-.55-16.21-6.53-30.62-13.47-44.71a246.91,246.91,0,0,0-18.24-30.78c-.09-.13-.15-.27-.41-.73a155.54,155.54,0,0,0,41.32,16.1c.83,3.52,1.24,6.9,2.43,10,5.13,13.23,17.1,19.65,31.37,16.86,11.51-2.25,21.46-7.77,30.16-15.49,4.67-4.14,7.81-9.3,7.51-15.8a25.68,25.68,0,0,0-9.84-19.17c-.38-.31-.79-.59-1.12-.84q12.57-28.85,25.08-57.51l25.09,57.51a24.33,24.33,0,0,0-8,9.23c-5.17,10-3.94,18.87,4.4,26.43,9.22,8.36,19.92,14.11,32.39,16a26.88,26.88,0,0,0,31-23.37c.16-1.14.13-2.31.21-3.65a156,156,0,0,0,41.76-16.21c-.29.52-.43.81-.61,1.08-11,16.36-20.81,33.39-27.14,52.19A71.66,71.66,0,0,0,847.91,441a4.47,4.47,0,0,1-.12.7H658.26Z"/><path class="cls-5" d="M658.22,454.29v-6.58H847.77v6.58Z"/><path class="cls-5" d="M658.25,460.37H847.79v5.76H658.25Z"/></svg>