<svg id="Layer_2" data-name="Layer 2" xmlns="http://www.w3.org/2000/svg" viewBox="0 0 698.25 211"><defs><style>.cls-1{fill:#0973ba;}</style></defs><path class="cls-1" d="M384.68,690.69h34.51l34.51,69,34.51-69h34.51l-69,138Z" transform="translate(-384.68 -621.67)"/><path class="cls-1" d="M699.3,828.72v-69q0-28.5,20.22-48.72t48.8-20.29q28.5,0,48.73,20.29t20.28,48.72H802.82a34.51,34.51,0,0,0-69,0v69Z" transform="translate(-384.68 -621.67)"/><path class="cls-1" d="M876.83,808.5q-20.22-20.22-20.22-48.8v-138h34.51v138a34.52,34.52,0,0,0,34.51,34.51v34.51Q897,828.72,876.83,808.5Z" transform="translate(-384.68 -621.67)"/><path class="cls-1" d="M965.12,808.5q-20.22-20.22-20.22-48.8T965.12,711q20.22-20.29,48.8-20.29T1062.65,711q20.28,20.21,20.28,48.72t-20.28,48.8q-20.22,20.22-48.73,20.22T965.12,808.5Zm73.13-24.4a34.41,34.41,0,1,0-24.33,10.11A33.15,33.15,0,0,0,1038.25,784.1Z" transform="translate(-384.68 -621.67)"/><path class="cls-1" d="M663.52,713.52Q643.06,693,614.21,693t-49.38,20.53Q544.37,734,544.37,762.83t20.46,49.38q20.46,20.46,49.38,20.46V797.75a34.92,34.92,0,1,1,24.62-59.54,35.12,35.12,0,0,1,7.44,10.62H593.83v14h90.22Q684.05,734,663.52,713.52Z" transform="translate(-384.68 -621.67)"/></svg>