<svg id="Layer_1" data-name="Layer 1" xmlns="http://www.w3.org/2000/svg" viewBox="0 0 1089.58 267.3"><defs><style>.cls-1{fill:#0973ba;}</style></defs><path class="cls-1" d="M447.18,881.83V786.36q0-39.45,28-67.41t67.5-28.06v47.73a47.9,47.9,0,0,0-47.73,47.74v95.47Zm19-210V614.53h57.34v57.34Z" transform="translate(-228.02 -614.53)"/><path class="cls-1" d="M569.32,786.36q0-39.45,28-67.41t67.5-28.06h95.47v47.73H664.79a47.92,47.92,0,0,0-47.74,47.74Zm0,95.47V834.09h95.47a47.89,47.89,0,0,0,47.73-47.73h47.74q0,39.52-28.06,67.5t-67.41,28Z" transform="translate(-228.02 -614.53)"/><path class="cls-1" d="M786.92,881.83V786.36q0-39.45,28-67.41t67.5-28.06v47.73a47.9,47.9,0,0,0-47.73,47.74v95.47Zm19-210V614.53h57.34v57.34Z" transform="translate(-228.02 -614.53)"/><path class="cls-1" d="M937,853.86q-28-28-28-67.5T937,719q28-28.07,67.5-28.06T1071.94,719q28.05,28,28.06,67.41t-28.06,67.5q-28,28-67.41,28T937,853.86Zm101.16-33.75a47.62,47.62,0,1,0-33.66,14A45.87,45.87,0,0,0,1038.19,820.11Z" transform="translate(-228.02 -614.53)"/><path class="cls-1" d="M1126.66,881.83V786.36q0-39.45,28-67.41t67.5-28.06q39.45,0,67.41,28.06t28.07,67.41v95.47h-47.74V786.36a47.74,47.74,0,0,0-95.47,0v95.47Z" transform="translate(-228.02 -614.53)"/><path class="cls-1" d="M1072.07,691.65l17.69-31.88-31.08-17.24-18.24,32.88A89.69,89.69,0,0,1,1072.07,691.65Z" transform="translate(-228.02 -614.53)"/><path class="cls-1" d="M228,690.35h47.36l47.36,94.72,47.36-94.72h47.35L322.74,879.79Z" transform="translate(-228.02 -614.53)"/></svg>